<svg xmlns="http://www.w3.org/2000/svg" xmlns:xlink="http://www.w3.org/1999/xlink" viewBox="0 0 32 32" fill="#FFFFFF">
  <path d="M3 5L3 23L8 23L8 28.078125L14.351563 23L29 23L29 5 Z M 5 7L27 7L27 21L13.648438 21L10 23.917969L10 21L5 21 Z M 10 12C8.894531 12 8 12.894531 8 14C8 15.105469 8.894531 16 10 16C11.105469 16 12 15.105469 12 14C12 12.894531 11.105469 12 10 12 Z M 16 12C14.894531 12 14 12.894531 14 14C14 15.105469 14.894531 16 16 16C17.105469 16 18 15.105469 18 14C18 12.894531 17.105469 12 16 12 Z M 22 12C20.894531 12 20 12.894531 20 14C20 15.105469 20.894531 16 22 16C23.105469 16 24 15.105469 24 14C24 12.894531 23.105469 12 22 12Z" fill="#FFFFFF" />
</svg>