<svg xmlns="http://www.w3.org/2000/svg" xmlns:xlink="http://www.w3.org/1999/xlink" viewBox="0 0 26 26" fill="#FFFFFF">
  <path d="M22.4375 -0.0625C22.0625 -0.0625 21.707031 0.105469 21.40625 0.40625L20.6875 1.09375L24.90625 5.3125L25.59375 4.59375C26.195313 3.992188 26.195313 3.101563 25.59375 2.5L23.5 0.40625C23.199219 0.105469 22.8125 -0.0625 22.4375 -0.0625 Z M 20 1.6875L18.90625 2.59375L23.40625 7.09375L24.40625 6.09375 Z M 18.3125 3.3125L9.28125 12.25C9.234375 12.289063 9.195313 12.328125 9.15625 12.375L9.09375 12.40625C8.984375 12.53125 8.910156 12.683594 8.875 12.84375L7.65625 17.125C7.550781 17.46875 7.644531 17.847656 7.898438 18.101563C8.152344 18.355469 8.53125 18.449219 8.875 18.34375L13.15625 17.125C13.445313 17.058594 13.6875 16.859375 13.8125 16.59375L22.6875 7.8125L21 6L21 6.09375L19.8125 4.90625L19.90625 4.90625 Z M 0.8125 4C0.335938 4.089844 -0.0078125 4.511719 0 5L0 25C0 25.550781 0.449219 26 1 26L21 26C21.550781 26 22 25.550781 22 25L22 14C22.003906 13.640625 21.816406 13.304688 21.503906 13.121094C21.191406 12.941406 20.808594 12.941406 20.496094 13.121094C20.183594 13.304688 19.996094 13.640625 20 14L20 24L2 24L2 6L12 6C12.359375 6.003906 12.695313 5.816406 12.878906 5.503906C13.058594 5.191406 13.058594 4.808594 12.878906 4.496094C12.695313 4.183594 12.359375 3.996094 12 4L1 4C0.96875 4 0.9375 4 0.90625 4C0.875 4 0.84375 4 0.8125 4 Z M 10.625 13.8125L12 13.90625L12.09375 15.40625L10.71875 15.8125L10.1875 15.28125Z" fill="#FFFFFF" />
</svg>