<svg xmlns="http://www.w3.org/2000/svg" xmlns:xlink="http://www.w3.org/1999/xlink" viewBox="0 0 24 24" fill="#FFFFFF">
  <path d="M16.9375 1.0625L3.875 14.125L1.0742188 22.925781L9.875 20.125L22.9375 7.0625C22.9375 7.0625 22.8375 4.9615 20.9375 3.0625C19.0375 1.1625 16.9375 1.0625 16.9375 1.0625 z M 17.3125 2.6875C18.3845 2.8915 19.237984 3.3456094 19.896484 4.0214844C20.554984 4.6973594 21.0185 5.595 21.3125 6.6875L19.5 8.5L15.5 4.5L16.9375 3.0625L17.3125 2.6875 z M 4.9785156 15.126953C4.990338 15.129931 6.1809555 15.430955 7.375 16.625C8.675 17.825 8.875 18.925781 8.875 18.925781L8.9179688 18.976562L5.3691406 20.119141L3.8730469 18.623047L4.9785156 15.126953 z" fill="#FFFFFF" />
</svg>