<svg xmlns="http://www.w3.org/2000/svg" xmlns:xlink="http://www.w3.org/1999/xlink" viewBox="0 0 16 16" fill="#FFFFFF">
  <path d="M2.5 1C1.675781 1 1 1.675781 1 2.5L1 12.5C1 13.324219 1.675781 14 2.5 14L12.5 14C13.324219 14 14 13.324219 14 12.5L14 10L13 11L13 12.5C13 12.78125 12.78125 13 12.5 13L2.5 13C2.21875 13 2 12.78125 2 12.5L2 2.5C2 2.21875 2.21875 2 2.5 2L12.5 2C12.78125 2 13 2.21875 13 2.5L13 4L14 5L14 2.5C14 1.675781 13.324219 1 12.5 1 Z M 10.730469 4.023438L10.019531 4.726563L12.292969 7L5 7L5 8L12.292969 8L10.019531 10.269531L10.730469 10.980469L14.207031 7.5Z" fill="#FFFFFF" />
</svg>