<svg xmlns="http://www.w3.org/2000/svg" xmlns:xlink="http://www.w3.org/1999/xlink" viewBox="0 0 24 24" fill="#FFFFFF">
  <path d="M14.9375 2.40625C14.679688 2.40625 14.414063 2.523438 14.21875 2.71875L9.6875 7.25L11.09375 8.65625L13.5 6.25C14.746094 6.746094 13.378906 8.066406 13.6875 8.5C13.953125 8.875 14.664063 8.828125 15.625 8.375C16.078125 8.160156 16.398438 8.125 16.5625 8.1875C17.746094 8.640625 14.574219 10.46875 15.625 11.1875C15.792969 11.300781 16.410156 11.304688 17.09375 11.15625L15.34375 12.90625L16.75 14.3125L21.28125 9.78125C21.671875 9.390625 21.671875 8.765625 21.28125 8.375L15.625 2.71875C15.429688 2.523438 15.195313 2.40625 14.9375 2.40625 Z M 8.46875 8.46875L6.625 10.3125C5.84375 11.09375 5.84375 12.34375 6.625 13.125L7.375 13.90625C7.753906 14.285156 7.769531 14.886719 7.40625 15.28125C7.132813 15.582031 6.832031 15.882813 6.625 15.96875C5.84375 16.296875 4.351563 16.835938 3.4375 17.75C2.070313 19.117188 1.59375 20.84375 2.375 21.625C3.15625 22.40625 4.882813 21.929688 6.25 20.5625C7.164063 19.648438 7.703125 18.160156 8.03125 17.375C8.117188 17.167969 8.421875 16.871094 8.71875 16.59375C9.113281 16.230469 9.714844 16.246094 10.09375 16.625L10.875 17.375C11.65625 18.15625 12.90625 18.15625 13.6875 17.375L15.53125 15.53125 Z M 4.5 18.5C4.757813 18.5 5.023438 18.585938 5.21875 18.78125C5.609375 19.171875 5.609375 19.828125 5.21875 20.21875C4.828125 20.609375 4.171875 20.609375 3.78125 20.21875C3.390625 19.828125 3.390625 19.171875 3.78125 18.78125C3.976563 18.585938 4.242188 18.5 4.5 18.5Z" fill="#FFFFFF" />
</svg>