<svg xmlns="http://www.w3.org/2000/svg" xmlns:xlink="http://www.w3.org/1999/xlink" viewBox="0 0 24 24" fill="#FFFFFF">
  <path d="M18 2L18 5L14.574219 5C13.864289 5 13.205262 5.3788628 12.847656 5.9921875L10.5 10.015625L8.1523438 5.9921875C7.7947374 5.3788628 7.1357108 5 6.4257812 5L2 5L2 7L6.4257812 7L9.3417969 12L6.4257812 17L2 17L2 19L6.4257812 19C7.1357139 19 7.7966906 18.621137 8.1542969 18.007812L10.5 13.984375L12.847656 18.009766C13.205994 18.620931 13.864289 19 14.574219 19L18 19L18 22L22 18L18 14L18 17L14.574219 17L14.572266 16.998047L11.658203 12.001953L14.574219 7L18 7L18 10L22 6L18 2 z" fill="#FFFFFF" />
</svg>